<svg width="32" height="32" viewBox="0 0 32 32" fill="none" xmlns="http://www.w3.org/2000/svg">
  <rect width="32" height="32" rx="6" fill="white"/>
  <rect x="0.5" y="0.5" width="31" height="31" rx="5.5" stroke="#e5e7eb"/>
  <path d="M7 10C7 9.448 7.448 9 8 9H24C24.552 9 25 9.448 25 10V22C25 22.552 24.552 23 24 23H8C7.448 23 7 22.552 7 22V10Z" fill="#1d4ed8" opacity="0.1"/>
  <path d="M8 10H24L16.4 16.2C16.16 16.39 15.84 16.39 15.6 16.2L8 10Z" fill="#1d4ed8"/>
  <path d="M7 11.5V22C7 22.552 7.448 23 8 23H24C24.552 23 25 22.552 25 22V11.5L17.2 17.8C16.5 18.36 15.5 18.36 14.8 17.8L7 11.5Z" fill="#1d4ed8"/>
</svg>
